<svg width="367" height="384" viewBox="0 0 367 384" fill="none" xmlns="http://www.w3.org/2000/svg">
<path d="M182.85 382.947C59.1167 382.52 0.663333 344.12 3.65 251.107H109.89C111.17 275.427 131.65 290.36 182.85 290.787C228.077 291.213 248.983 278.413 248.983 261.773C248.983 250.253 242.583 238.307 207.597 233.187L161.517 225.933C93.6767 214.84 12.1833 206.733 12.1833 115C12.1833 44.1733 69.7833 0.65332 183.703 0.65332C286.53 0.65332 358.21 29.24 356.077 131.64H250.69C246.423 107.747 226.37 92.8133 181.143 92.8133C141.89 92.8133 125.677 104.76 125.677 120.973C125.677 131.213 132.077 143.587 159.383 147.853L197.357 154.253C268.61 166.2 366.317 168.333 366.317 266.467C366.317 344.547 305.73 383.373 182.85 382.947Z" fill="black"/>
</svg>
